v 1.000000 0.025000 -1.142192
v 1.000000 -0.025000 -1.142192
v 0.000000 -0.025000 -0.225000
v 0.000000 0.025000 -0.225000
v 0.000000 -0.025000 0.225000
v 0.000000 0.025000 0.225000
v 1.000000 0.025000 1.142192
v 0.000000 0.025000 -0.225000
v 0.000000 0.025000 0.225000
v 1.000000 -0.025000 1.142192
v 0.000000 -0.025000 0.225000
v 0.000000 -0.025000 -0.225000
vn -0.675935 0.000000 -0.736961
vn -1.000000 0.000000 -0.000000
vn -0.000000 1.000000 -0.000000
vn -0.675935 0.000000 0.736961
vn 1.000000 -0.000000 0.000000
vn 0.000000 -1.000000 0.000000
f 1//1 2//1 3//1
f 1//1 3//1 4//1
f 4//2 3//2 5//2
f 4//2 5//2 6//2
f 7//3 8//3 9//3
f 10//4 7//4 9//4
f 10//4 9//4 11//4
f 11//2 9//2 8//2
f 11//2 8//2 12//2
f 1//3 4//3 7//3
f 1//5 7//5 10//5
f 1//5 10//5 2//5
f 10//6 11//6 12//6
f 2//6 10//6 12//6
